<?xml version="1.0" encoding="UTF-8" standalone="no"?>
<svg
   xmlns:dc="http://purl.org/dc/elements/1.1/"
   xmlns:cc="http://creativecommons.org/ns#"
   xmlns:rdf="http://www.w3.org/1999/02/22-rdf-syntax-ns#"
   xmlns:svg="http://www.w3.org/2000/svg"
   xmlns="http://www.w3.org/2000/svg"
   viewBox="0 0 60.207125 38.304851"
   height="38.304852"
   width="60.207123"
   id="svg1959"
   version="1.1">
  <metadata
     id="metadata1965">
    <rdf:RDF>
      <cc:Work
         rdf:about="">
        <dc:format>image/svg+xml</dc:format>
        <dc:type
           rdf:resource="http://purl.org/dc/dcmitype/StillImage" />
        <dc:title></dc:title>
      </cc:Work>
    </rdf:RDF>
  </metadata>
  <defs
     id="defs1963" />
  <g
     transform="scale(0.16279732)"
     id="g835">
    <path
       id="path2567-8"
       d="m 128.34977,234.83708 c -0.2445,-0.24444 -0.4445,-0.8452 -0.4445,-1.33502 0,-0.48982 21.2223,-28.56482 47.1606,-62.38889 39.7192,-51.79467 48.4238,-62.76803 55.1667,-69.54532 18.7517,-18.847477 39.0535,-27.210797 63.3395,-26.092597 20.7387,0.95486 38.4545,8.67724 52.8846,23.05264 6.963,6.936547 11.743,13.740367 16.1822,23.033657 4.9233,10.30638 6.693,17.83665 7.0963,30.19475 0.3984,12.20795 -0.4191,18.67968 -3.5507,28.10734 -9.9608,29.98744 -36.0254,51.18954 -67.2791,54.7277 -6.6812,0.75636 -169.81,0.9914 -170.5556,0.24574 z"
       style="opacity:1;fill:#ffffff;stroke:none;stroke-width:0.66666669" />
    <path
       id="path2567-8-6"
       d="m 31.156933,119.16878 6.27773,-3.11276 0.1252,-11.22058 c 0.10433,-9.349337 0.3534,-11.887667 1.49367,-15.220587 6.23273,-18.21838 18.31104,-30.15066 36.20854,-35.77066 4.2625,-1.33847 6.3635,-1.56267 14.6432,-1.56267 8.277,0 10.381297,0.22442 14.637897,1.56109 9.3592,2.93899 18.7762,8.67705 24.3313,14.8259 1.3573,1.50236 2.6249,2.57452 2.8168,2.38257 0.6368,-0.63681 -4.3655,-10.18816 -7.5648,-14.4442 -1.7322,-2.30434 -5.3406,-5.98808 -8.0187,-8.1861 -2.678,-2.198 -4.8692,-4.30782 -4.8692,-4.68847 0,-1.45983 7.6757,-10.61588 13.9398,-16.62834 34.5832,-33.1938196 88.0824,-36.2476196 126.7111,-7.23283 9.2158,6.9222 22.0158,20.9784 22.0158,24.17646 0,0.67866 -0.1169,1.23392 -0.2597,1.23392 -0.1428,0 -2.7678,0.47548 -5.8333,1.05664 -13.5281,2.56464 -28.9209,9.19037 -40.5549,17.45668 -7.5161,5.34043 -20.7368,18.24923 -26.7851,26.15334 -45.191,59.056607 -94.2299,122.300647 -96.9058,124.976487 -11.135197,11.13519 -25.039097,17.98888 -39.842297,19.63953 -3.5382,0.39453 -6.6698,0.67742 -6.9593,0.62864 -67.02623,-8.97094 -73.55912,-90.77998 -25.60794,-116.02406 z"
       style="opacity:1;fill:#ffffff;stroke:none;stroke-width:0.66666669" />
  </g>
</svg>
